<?xml version="1.0" encoding="UTF-8"?>
<svg version="1.1" xmlns="http://www.w3.org/2000/svg" width="385" height="117">
<path d="M0 0 C3.81271757 2.14767003 6.34049381 4.95260707 8 9 C8.72320767 13.62516534 8.4121396 17.14401775 6.375 21.375 C2.78174634 25.34649089 -0.20011818 26.77501477 -5.5 27.4375 C-9.70176321 26.9122796 -11.79978096 25.74304489 -15 23 C-16 20.875 -16 20.875 -16 19 C-15.34 18.34 -14.68 17.68 -14 17 C-16.89640118 16.91879249 -19.79050912 16.85940579 -22.6875 16.8125 C-23.50412109 16.78736328 -24.32074219 16.76222656 -25.16210938 16.73632812 C-29.87905174 16.67903733 -33.35231987 16.66362467 -37 20 C-39.75978865 25.30873397 -40.41080566 29.43102889 -40.3359375 35.35546875 C-40.34845743 36.96419668 -40.36149488 38.57292066 -40.375 40.18164062 C-40.37890826 42.67828822 -40.37507647 45.17453397 -40.36035156 47.67114258 C-40.3175075 59.68057112 -40.83199158 70.43224819 -49.1875 79.9375 C-58.81960455 88.50401381 -70.24882351 90.49482146 -82.73828125 90.23828125 C-87.0886152 89.92047242 -89.47813458 89.6209231 -93 87 C-94.17516043 84.25795899 -94.41379513 81.94829032 -94 79 C-92.23535939 76.14006522 -91.00434303 74.50217151 -88 73 C-81.61713473 72.52719517 -81.61713473 72.52719517 -79.0625 74.484375 C-75.35958315 77.20545784 -71.39161889 76.65874283 -67 76 C-60.84059981 74.0201928 -57.03783618 71.83734086 -53.84558105 66.0460968 C-52.36016415 62.45175565 -52.45623763 58.94330009 -52.49609375 55.1015625 C-52.48667252 54.26716644 -52.47725128 53.43277039 -52.46754456 52.5730896 C-52.43905023 49.92347326 -52.43580949 47.27475654 -52.4375 44.625 C-52.43387287 41.98251622 -52.42412013 39.34068372 -52.39674377 36.69833374 C-52.38017256 35.0610665 -52.37690523 33.42358608 -52.38975525 31.7862854 C-52.32319403 24.46104503 -50.78088677 17.19658956 -45.75 11.625 C-44.93789062 10.68527344 -44.93789062 10.68527344 -44.109375 9.7265625 C-37.7452944 4.51744468 -31.3305214 4.56697908 -23.49609375 4.56054688 C-18.31522163 4.4338645 -15.89176768 3.69931763 -12 0 C-7.80465573 -1.39844809 -4.27012435 -1.07117454 0 0 Z M-10.1875 8.0625 C-12.35477305 9.99796608 -12.35477305 9.99796608 -12.4375 13.5625 C-12.293125 14.696875 -12.14875 15.83125 -12 17 C-8.53076119 19.31282587 -7.07794425 19.42478586 -3 19 C-1.01970318 17.93654948 -1.01970318 17.93654948 0 16 C0.66685938 13.54327108 0.66685938 13.54327108 0 11 C-2.22487879 8.60336043 -2.22487879 8.60336043 -5 7 C-7.95556001 6.78154802 -7.95556001 6.78154802 -10.1875 8.0625 Z " fill="#48435D" transform="translate(114,19)"/>
<path d="M0 0 C3.79390093 2.98668797 5.34026527 5.55667428 7 10 C7.83144531 10.03738281 8.66289063 10.07476562 9.51953125 10.11328125 C10.60621094 10.17902344 11.69289062 10.24476562 12.8125 10.3125 C13.89144531 10.37050781 14.97039063 10.42851562 16.08203125 10.48828125 C19.3390173 11.05945283 20.08009327 11.39530828 22 14 C22.38768005 16.56025696 22.38768005 16.56025696 22.40405273 19.66137695 C22.41673691 20.82300858 22.42942108 21.9846402 22.44248962 23.18147278 C22.43955399 24.43771957 22.43661835 25.69396637 22.43359375 26.98828125 C22.4388356 28.27937302 22.44407745 29.57046478 22.44947815 30.90068054 C22.45841438 33.6353023 22.45598249 36.36963214 22.44604492 39.10424805 C22.43458196 42.59811936 22.45472099 46.09097595 22.48396206 49.58471394 C22.50679886 52.92762221 22.49985338 56.27029694 22.49609375 59.61328125 C22.51294472 61.4885424 22.51294472 61.4885424 22.53013611 63.40168762 C22.46654355 71.34038064 21.77526887 75.0899001 16.25 80.8125 C11.77995141 83.17169231 7.55092204 83.35790509 2.75 82.25 C0.15739713 81.07154415 -1.75445853 79.7215818 -4 78 C-6.14733927 77.29485154 -6.14733927 77.29485154 -8 77 C-8.08507813 77.60457031 -8.17015625 78.20914063 -8.2578125 78.83203125 C-9.21784383 81.63633329 -10.34295861 82.21743201 -12.875 83.6875 C-13.92300781 84.31205078 -13.92300781 84.31205078 -14.9921875 84.94921875 C-17 86 -17 86 -20 87 C-20.05411124 84.58303128 -20.09372278 82.16728213 -20.125 79.75 C-20.14175781 79.06808594 -20.15851562 78.38617188 -20.17578125 77.68359375 C-20.21185049 73.9684625 -20.18812735 71.09092116 -18 68 C-14.22399424 66.11199712 -9.6550143 66.77195516 -5.5 66.75 C-4.52417969 66.729375 -3.54835938 66.70875 -2.54296875 66.6875 C-1.61097656 66.68234375 -0.67898437 66.6771875 0.28125 66.671875 C1.13783203 66.6625293 1.99441406 66.65318359 2.87695312 66.64355469 C3.92786133 66.81999512 3.92786133 66.81999512 5 67 C5.66 67.99 6.32 68.98 7 70 C7.99 70 8.98 70 10 70 C10.33 54.49 10.66 38.98 11 23 C1.75649007 23.32509219 1.75649007 23.32509219 -3 26 C-7.68683808 26.73285105 -11.14366361 26.44402628 -15.375 24.25 C-19.69360653 20.54833726 -21.58959396 18.04856597 -22.12890625 12.16015625 C-21.89442324 8.23078937 -20.30212108 5.14188852 -18 2 C-12.1151801 -2.56073542 -6.79739609 -2.46405608 0 0 Z M-13.5 8.1875 C-15.20588235 10.85477941 -15.20588235 10.85477941 -15 13.625 C-13.74488716 16.605893 -12.93544833 17.60952448 -10 19 C-6.37942732 19.00668717 -6.37942732 19.00668717 -3 18 C-0.62777005 15.10420618 -0.62777005 15.10420618 -1.25 11.4375 C-1.6858444 7.95407388 -1.6858444 7.95407388 -4 6 C-8.28412274 5.44465076 -10.18711552 5.28872608 -13.5 8.1875 Z " fill="#8D2AFB" transform="translate(37,9)"/>
<path d="M0 0 C2.375 0.875 2.375 0.875 4.375 2.875 C4.7890625 5.9140625 4.7890625 5.9140625 5 9.5 C5.07476562 10.68851563 5.14953125 11.87703125 5.2265625 13.1015625 C5.30003906 14.47441406 5.30003906 14.47441406 5.375 15.875 C9.30361681 12.03612316 13.14187006 8.24231366 16.5625 3.9375 C18.41984835 1.74290954 19.31622601 0.90158823 22 -0.3125 C24.375 -0.125 24.375 -0.125 26.6875 1.8125 C27.244375 2.493125 27.80125 3.17375 28.375 3.875 C26.96784249 8.1347105 24.92013289 10.79491422 21.875 14.0625 C21.0809375 14.92230469 20.286875 15.78210938 19.46875 16.66796875 C18.1220681 18.08751217 16.75859237 19.49140763 15.375 20.875 C15.375 24.70524408 16.45150564 25.95862244 19.0625 28.8125 C20.15706992 29.84361659 21.26161381 30.86423004 22.375 31.875 C28.06427011 37.03991342 28.06427011 37.03991342 29.375 40.5625 C29.375 42.875 29.375 42.875 27.375 45.875 C24.7734375 46.5625 24.7734375 46.5625 21.375 45.875 C18.2655287 43.50966262 15.66213356 40.72487896 13 37.875 C12.26394531 37.111875 11.52789062 36.34875 10.76953125 35.5625 C8.95710152 33.67945613 7.16013318 31.78388041 5.375 29.875 C5.32601563 30.86242187 5.27703125 31.84984375 5.2265625 32.8671875 C5.15179688 34.14851563 5.07703125 35.42984375 5 36.75 C4.93039062 38.02617188 4.86078125 39.30234375 4.7890625 40.6171875 C4.375 43.875 4.375 43.875 2.375 45.875 C-1.67761287 46.21990322 -3.17254176 46.17663882 -6.625 43.875 C-6.94145743 40.87104458 -7.06895461 38.07759339 -7.05859375 35.0703125 C-7.0638356 34.19478729 -7.06907745 33.31926208 -7.07447815 32.41720581 C-7.08090847 30.56281597 -7.07954832 28.7083854 -7.07104492 26.85400391 C-7.06255333 24.01781274 -7.09125104 21.18364726 -7.12304688 18.34765625 C-7.12465942 16.5468756 -7.12408034 14.74609139 -7.12109375 12.9453125 C-7.13232773 12.09728058 -7.14356171 11.24924866 -7.15513611 10.3755188 C-7.10928413 6.49427076 -7.08562032 4.51024282 -4.75805664 1.30029297 C-2.625 -0.125 -2.625 -0.125 0 0 Z " fill="#902DFB" transform="translate(348.625,42.125)"/>
<path d="M0 0 C3.34912996 1.49641977 5.49356152 3.37420731 8 6 C10.88415883 7.44207941 13.41721528 7.09394887 16.625 7.0625 C18.40777344 7.04896484 18.40777344 7.04896484 20.2265625 7.03515625 C21.59941406 7.01775391 21.59941406 7.01775391 23 7 C22.6875 8.875 22.6875 8.875 22 11 C18.71252584 13.19164944 17.51505175 13.28679386 13.67578125 13.4140625 C12.13374023 13.47207031 12.13374023 13.47207031 10.56054688 13.53125 C8.95276367 13.57765625 8.95276367 13.57765625 7.3125 13.625 C6.22904297 13.66367187 5.14558594 13.70234375 4.02929688 13.7421875 C1.35303533 13.83650509 -1.32321843 13.92210005 -4 14 C-5.2187375 17.79537631 -5.11338128 21.42791621 -5.09765625 25.390625 C-5.09553383 26.44754547 -5.09553383 26.44754547 -5.09336853 27.52581787 C-5.08778933 29.76725584 -5.07524073 32.00859243 -5.0625 34.25 C-5.05748231 35.77343605 -5.05291987 37.29687368 -5.04882812 38.8203125 C-5.03782674 42.54690772 -5.02057646 46.27344396 -5 50 C-2.36 50.33 0.28 50.66 3 51 C2.34 54.63 1.68 58.26 1 62 C-8.84716797 62.44091797 -8.84716797 62.44091797 -13 59 C-16.30850865 55.92443619 -17.2762519 53.60563834 -17.53344727 49.21313477 C-17.56651568 47.2894781 -17.57610932 45.36532266 -17.56640625 43.44140625 C-17.57260483 42.41949692 -17.57880341 41.39758759 -17.58518982 40.3447113 C-17.59228241 38.1870926 -17.58912382 36.02941911 -17.57641602 33.87182617 C-17.56256069 30.57693342 -17.59661883 27.28488695 -17.63476562 23.99023438 C-17.63571697 21.89062431 -17.6338572 19.7910107 -17.62890625 17.69140625 C-17.64216446 16.70999161 -17.65542267 15.72857697 -17.66908264 14.71742249 C-17.60776733 10.19509189 -17.49591927 6.99614181 -14.58569336 3.39428711 C-10.05558922 -0.80047555 -5.97161398 -0.53688012 0 0 Z " fill="#8D2AF9" transform="translate(94,39)"/>
<path d="M0 0 C5.24068602 1.74689534 6.91092029 6.58247936 9.35083008 11.32250977 C10.49198056 13.66088386 11.59707164 16.0125647 12.6875 18.375 C13.26733643 19.62349731 13.26733643 19.62349731 13.85888672 20.8972168 C14.62203174 22.54141834 15.38364451 24.18633214 16.14355469 25.83203125 C17.03897592 27.74516699 17.97281603 29.64023899 18.9140625 31.53125 C22.21568407 38.24516202 22.21568407 38.24516202 22.0625 42.6875 C21.1875 45.0625 21.1875 45.0625 20.1875 46.0625 C16.8125 46.375 16.8125 46.375 13.1875 46.0625 C10.53742093 43.24403778 9.17801892 40.0372531 7.70703125 36.4921875 C7.26552734 35.43128906 6.82402344 34.37039062 6.36914062 33.27734375 C5.91732422 32.17519531 5.46550781 31.07304688 5 29.9375 C4.53658203 28.82761719 4.07316406 27.71773437 3.59570312 26.57421875 C0.1875 18.33229013 0.1875 18.33229013 0.1875 16.0625 C-0.4725 16.0625 -1.1325 16.0625 -1.8125 16.0625 C-1.98193115 16.59689697 -2.1513623 17.13129395 -2.32592773 17.68188477 C-4.23822396 23.5793528 -6.46160602 29.29113669 -8.875 35 C-9.4019043 36.27327148 -9.4019043 36.27327148 -9.93945312 37.57226562 C-10.28041016 38.38244141 -10.62136719 39.19261719 -10.97265625 40.02734375 C-11.27824463 40.7555835 -11.58383301 41.48382324 -11.89868164 42.23413086 C-12.8125 44.0625 -12.8125 44.0625 -14.8125 46.0625 C-17.9429173 46.39552312 -19.99148298 46.53921956 -22.75 44.9375 C-24.36114001 42.09431175 -23.51940199 40.20340469 -22.8125 37.0625 C-21.9593705 34.89099019 -21.03122682 32.74807519 -20.046875 30.6328125 C-19.77159973 30.03878632 -19.49632446 29.44476013 -19.21270752 28.83273315 C-18.63118403 27.58231199 -18.04605854 26.33356029 -17.45751953 25.08642578 C-16.57020057 23.20383798 -15.69639864 21.31542227 -14.82421875 19.42578125 C-5.84772521 0.12994945 -5.84772521 0.12994945 0 0 Z " fill="#912DFB" transform="translate(284.8125,41.9375)"/>
<path d="M0 0 C1.30324219 -0.00257812 2.60648438 -0.00515625 3.94921875 -0.0078125 C7.3125 0.125 7.3125 0.125 10.3125 1.125 C10.8075 4.59 10.8075 4.59 11.3125 8.125 C8.21154263 10.19230491 7.54704393 10.36516929 4.0390625 10.36328125 C2.8015625 10.38745117 2.8015625 10.38745117 1.5390625 10.41210938 C-0.18742563 10.42895948 -1.91406703 10.43427437 -3.640625 10.42773438 C-8.14980215 10.5366008 -10.08703144 10.6472493 -13.7265625 13.54296875 C-17.11942125 18.01045807 -17.37262614 21.61621548 -16.6875 27.125 C-14.6824912 30.9276029 -13.26063738 32.74290841 -9.6875 35.125 C-6.85428205 35.37658747 -4.0877688 35.54398897 -1.25 35.625 C7.93055704 35.88840839 7.93055704 35.88840839 11.3125 38.125 C11.4375 41 11.4375 41 11.3125 44.125 C8.5291775 46.9083225 6.57651086 46.41416926 2.7734375 46.44726562 C1.49339844 46.44243164 1.49339844 46.44243164 0.1875 46.4375 C-0.64265625 46.45361328 -1.4728125 46.46972656 -2.328125 46.48632812 C-9.53009995 46.49197231 -14.87473116 45.01820979 -20.9375 40.9375 C-26.35778834 35.39402329 -27.93720922 30.92572925 -28.1875 23.125 C-27.97157623 16.39537596 -26.94938153 11.51770566 -22.2265625 6.60546875 C-15.37763062 0.57354143 -8.92317285 -0.01775756 0 0 Z " fill="#BEBFC3" transform="translate(200.6875,41.875)"/>
<path d="M0 0 C0.72110962 -0.00191345 1.44221924 -0.0038269 2.18518066 -0.00579834 C3.70825551 -0.00715801 5.23134202 -0.00347677 6.75439453 0.00488281 C9.08522583 0.01558586 11.41528642 0.00498062 13.74609375 -0.0078125 C15.2265642 -0.00649087 16.70703417 -0.00392839 18.1875 0 C18.8844397 -0.00404846 19.58137939 -0.00809692 20.29943848 -0.01226807 C23.95570961 0.02315171 25.46429428 0.17932118 28.59375 2.265625 C28.90625 5.265625 28.90625 5.265625 28.59375 8.265625 C25.91282309 10.94655191 24.20207637 10.65232757 20.46875 10.890625 C19.37304688 10.96539062 18.27734375 11.04015625 17.1484375 11.1171875 C16.30539063 11.16617188 15.46234375 11.21515625 14.59375 11.265625 C14.60422363 12.25481934 14.61469727 13.24401367 14.62548828 14.26318359 C14.66164019 17.92704664 14.68463282 21.59089386 14.70361328 25.25488281 C14.71368188 26.84182383 14.72733767 28.42874625 14.74462891 30.015625 C14.76884001 32.29431747 14.78022422 34.57276506 14.7890625 36.8515625 C14.79938507 37.56307465 14.80970764 38.27458679 14.82034302 39.00765991 C14.82074422 40.76194165 14.71577209 42.51559209 14.59375 44.265625 C12.59375 46.265625 12.59375 46.265625 9.09375 46.515625 C5.59375 46.265625 5.59375 46.265625 3.59375 44.265625 C3.41879394 41.75641654 3.36205431 39.35937559 3.3984375 36.8515625 C3.4012674 36.12192291 3.40409729 35.39228333 3.40701294 34.64053345 C3.41821998 32.30706472 3.4433249 29.97397797 3.46875 27.640625 C3.47877915 26.05990137 3.48790511 24.47917173 3.49609375 22.8984375 C3.51816095 19.02068586 3.55269385 15.14322022 3.59375 11.265625 C2.67851562 11.22824219 1.76328125 11.19085938 0.8203125 11.15234375 C-0.36820313 11.08660156 -1.55671875 11.02085938 -2.78125 10.953125 C-3.96460938 10.89511719 -5.14796875 10.83710937 -6.3671875 10.77734375 C-7.87152344 10.52404297 -7.87152344 10.52404297 -9.40625 10.265625 C-11.40625 7.265625 -11.40625 7.265625 -11.21875 4.703125 C-9.41805876 -0.69894873 -4.80497218 -0.02791166 0 0 Z " fill="#902FFA" transform="translate(237.40625,41.734375)"/>
<path d="M0 0 C2.9375 0.875 2.9375 0.875 4.10888672 2.48144531 C5.23869765 5.74504767 5.16110151 8.59561619 5.1328125 12.046875 C5.1299826 12.7292926 5.12715271 13.41171021 5.12423706 14.11480713 C5.11308098 16.28505307 5.08798557 18.45487971 5.0625 20.625 C5.05246426 22.10025444 5.04333944 23.57551537 5.03515625 25.05078125 C5.01315687 28.65898942 4.97865883 32.26695375 4.9375 35.875 C6.61779297 35.82279297 6.61779297 35.82279297 8.33203125 35.76953125 C9.80467251 35.74139161 11.27732998 35.71409163 12.75 35.6875 C13.85698242 35.64979492 13.85698242 35.64979492 14.98632812 35.61132812 C20.43973409 35.53729999 20.43973409 35.53729999 22.9296875 37.2265625 C24.35595817 39.55945483 24.28093452 41.19621076 23.9375 43.875 C21.25262835 46.55987165 19.87273019 46.13269449 16.125 46.140625 C14.96742188 46.14320312 13.80984375 46.14578125 12.6171875 46.1484375 C11.40289062 46.14070313 10.18859375 46.13296875 8.9375 46.125 C7.72320312 46.13273437 6.50890625 46.14046875 5.2578125 46.1484375 C3.52144531 46.14457031 3.52144531 46.14457031 1.75 46.140625 C0.15091797 46.13724121 0.15091797 46.13724121 -1.48046875 46.13378906 C-4.0625 45.875 -4.0625 45.875 -6.0625 43.875 C-6.32319641 42.0534668 -6.32319641 42.0534668 -6.3371582 39.82421875 C-6.34669022 38.98995361 -6.35622223 38.15568848 -6.36604309 37.29614258 C-6.36513168 36.39404053 -6.36422028 35.49193848 -6.36328125 34.5625 C-6.36756638 33.63783936 -6.3718515 32.71317871 -6.37626648 31.76049805 C-6.38201503 29.80355652 -6.38250619 27.84659361 -6.37817383 25.88964844 C-6.37501263 22.88700129 -6.39847062 19.8853378 -6.42382812 16.8828125 C-6.42610085 14.98437625 -6.42680474 13.08593734 -6.42578125 11.1875 C-6.434991 10.28539795 -6.44420074 9.3832959 -6.45368958 8.45385742 C-6.44746078 7.61959229 -6.44123199 6.78532715 -6.43481445 5.92578125 C-6.43544388 5.19012939 -6.4360733 4.45447754 -6.4367218 3.6965332 C-5.68964982 0.06014318 -3.27242628 -0.13356842 0 0 Z " fill="#9131FB" transform="translate(316.0625,42.125)"/>
<path d="M0 0 C0.0992963 4.58978038 0.17166748 9.17892788 0.21972656 13.76953125 C0.23977222 15.32921244 0.26701657 16.88881913 0.30175781 18.44824219 C0.35059126 20.69745314 0.37303815 22.9456659 0.390625 25.1953125 C0.41127014 25.8861795 0.43191528 26.57704651 0.45318604 27.28884888 C0.4554953 32.33527685 -0.86373202 35.10578867 -4 39 C-9.91501729 44.21084856 -13.7718262 44.33695599 -21.5625 44.2890625 C-26.0552759 43.91126089 -27.80870054 43.10265225 -31 40 C-33 37 -33 37 -32.6875 34.375 C-32 32 -32 32 -31 31 C-24.72544081 31.59193955 -24.72544081 31.59193955 -22 33.125 C-18.80766219 34.52164779 -16.30517483 33.79569024 -13 33 C-8.73359841 26.60039761 -9.94907273 18.65676206 -10.12695312 11.25585938 C-10.23647058 2.66840224 -10.23647058 2.66840224 -8 -1 C-4.37673261 -2.2077558 -3.35853631 -1.54311128 0 0 Z " fill="#BDBFC2" transform="translate(167,44)"/>
<path d="M0 0 C3.61833743 2.84847841 5.94898619 5.48064064 7 10 C6.92642014 14.635531 6.61309565 17.68097439 3.75 21.375 C0.44409308 24.53063843 -1.4823571 25.88124326 -6.0703125 26.09765625 C-11.61867902 25.86255597 -14.6761523 24.25186577 -18.6875 20.47265625 C-21.61226423 17.19100114 -21.45298715 13.84130336 -21.41015625 9.61328125 C-20.71950738 5.21286131 -18.41753262 2.71045691 -15 0 C-9.92096308 -2.82168718 -5.2468638 -2.05227883 0 0 Z M-12.9375 7.125 C-14.50422245 9.88980433 -14.38976435 11.88188517 -14 15 C-12.35233015 17.65457921 -11.07653979 17.97720091 -8.0625 18.875 C-5.02152513 19.25102436 -5.02152513 19.25102436 -2.6875 17.8125 C-0.76076901 15.74304819 -0.08324003 14.83016097 0 12 C-1.14786941 9.75643706 -2.2095767 7.7904233 -4 6 C-8.66052404 5.57607843 -8.66052404 5.57607843 -12.9375 7.125 Z " fill="#922EFA" transform="translate(118,88)"/>
<path d="M0 0 C1.3082578 1.96238669 2.56162256 3.96278154 3.75 6 C6.36460305 9.4861374 7.90399033 10.55881141 12 12 C13.7274648 12.12935774 15.4570748 12.23189795 17.1875 12.3125 C19.7890625 12.49609375 19.7890625 12.49609375 22 13 C24.0625 15.875 24.0625 15.875 25 19 C25.495 20.485 25.495 20.485 26 22 C17.60489702 24.16647819 7.46804948 23.74771769 -0.33984375 19.82421875 C-3.19105253 18.07637105 -5.63142072 16.36857928 -8 14 C-7.68346697 10.26653346 -5.58368227 7.71563369 -3.4375 4.75 C-2.79683594 3.85796875 -2.15617187 2.9659375 -1.49609375 2.046875 C-0.75552734 1.03367187 -0.75552734 1.03367187 0 0 Z " fill="#494365" transform="translate(73,90)"/>
<path d="M0 0 C0.33 0 0.66 0 1 0 C1.33 4.95 1.66 9.9 2 15 C1.01 15.33 0.02 15.66 -1 16 C-1.02685095 13.52076199 -1.04676547 11.0418116 -1.0625 8.5625 C-1.07506836 7.50192383 -1.07506836 7.50192383 -1.08789062 6.41992188 C-1.09653588 4.61306441 -1.05220011 2.80612397 -1 1 C-0.67 0.67 -0.34 0.34 0 0 Z " fill="#943AF2" transform="translate(18,80)"/>
<path d="M0 0 C3.3 0 6.6 0 10 0 C9.67 0.99 9.34 1.98 9 3 C8.1646875 2.7834375 8.1646875 2.7834375 7.3125 2.5625 C4.88615805 1.97230872 2.45093655 1.476571 0 1 C0 0.67 0 0.34 0 0 Z " fill="#9431F7" transform="translate(106,48)"/>
<path d="M0 0 C-1.98 1.32 -3.96 2.64 -6 4 C-6 2.68 -6 1.36 -6 0 C-3.50907189 -1.24546405 -2.58919267 -0.7767578 0 0 Z " fill="#9D22F7" transform="translate(317,43)"/>
</svg>
